<svg width="92" height="83" viewBox="0 0 92 83" fill="none" xmlns="http://www.w3.org/2000/svg">
<path d="M46 18.4V0H0V82.8H92V18.4H46ZM18.4 73.6H9.2V64.4H18.4V73.6ZM18.4 55.2H9.2V46H18.4V55.2ZM18.4 36.8H9.2V27.6H18.4V36.8ZM18.4 18.4H9.2V9.2H18.4V18.4ZM36.8 73.6H27.6V64.4H36.8V73.6ZM36.8 55.2H27.6V46H36.8V55.2ZM36.8 36.8H27.6V27.6H36.8V36.8ZM36.8 18.4H27.6V9.2H36.8V18.4ZM82.8 73.6H46V64.4H55.2V55.2H46V46H55.2V36.8H46V27.6H82.8V73.6ZM73.6 36.8H64.4V46H73.6V36.8ZM73.6 55.2H64.4V64.4H73.6V55.2Z" fill="#4c4c4c"/>
</svg>
