<svg width="92" height="97" viewBox="0 0 92 97" fill="none" xmlns="http://www.w3.org/2000/svg">
<path d="M20.909 37.6365H12.5454V66.9092H20.909V37.6365Z" fill="#4c4c4c"/>
<path d="M45.9999 37.6365H37.6362V66.9092H45.9999V37.6365Z" fill="#4c4c4c"/>
<path d="M83.6364 20.9091L41.8182 0L0 20.9091V29.2727H83.6364V20.9091ZM18.6927 20.9091L41.8182 9.36727L64.9436 20.9091H18.6927Z" fill="#4c4c4c"/>
<path d="M0 75.2727V83.6363H51.8545C50.9764 80.96 50.5164 78.1582 50.3491 75.2727H0Z" fill="#4c4c4c"/>
<path d="M71.0907 47.0874V37.6365H62.7271V51.2692L71.0907 47.0874Z" fill="#4c4c4c"/>
<path d="M75.2727 54.3635L58.5454 62.7272V73.3908C58.5454 83.929 65.6963 93.7981 75.2727 96.1817C84.849 93.7981 92 83.929 92 73.3908V62.7272L75.2727 54.3635ZM72.2618 83.6363L63.7727 75.1472L68.2054 70.7144L72.2618 74.7708L82.34 64.8181L86.7727 69.2508L72.2618 83.6363Z" fill="#4c4c4c"/>
</svg>
