<svg width="20" height="25" viewBox="0 0 20 25" fill="none" xmlns="http://www.w3.org/2000/svg">
<path d="M0 20.9404V19.0909H2.63323V9.78056C2.63323 8.10867 3.15047 6.57785 4.18495 5.18809C5.21944 3.79833 6.59352 2.91536 8.30721 2.53918V1.63009C8.30721 1.14943 8.46917 0.757576 8.7931 0.454545C9.11703 0.151515 9.51933 0 10 0C10.4807 0 10.883 0.151515 11.2069 0.454545C11.5308 0.757576 11.6928 1.14943 11.6928 1.63009V2.53918C13.4065 2.91536 14.791 3.79833 15.8464 5.18809C16.9018 6.57785 17.4295 8.10867 17.4295 9.78056V19.0909H20V20.9404H0ZM10 24.9843C9.35214 24.9843 8.78265 24.7492 8.29154 24.279C7.80042 23.8088 7.55486 23.2288 7.55486 22.5392H12.4451C12.4451 23.2288 12.21 23.8088 11.7398 24.279C11.2696 24.7492 10.6897 24.9843 10 24.9843ZM4.45141 19.0909H15.5799V9.78056C15.5799 8.23407 15.0418 6.91745 13.9655 5.83072C12.8892 4.74399 11.5778 4.20063 10.0313 4.20063C8.48485 4.20063 7.16823 4.74399 6.0815 5.83072C4.99477 6.91745 4.45141 8.23407 4.45141 9.78056V19.0909Z" fill="#8453B3"/>
</svg>
