<svg width="92" height="90" viewBox="0 0 92 90" fill="none" xmlns="http://www.w3.org/2000/svg">
<path d="M57.6095 89.8095L23.5476 80.0619V43.1524H33.8429L57.719 52.0238C61.881 53.5571 64.7286 55.1817 66.2619 56.8976C67.7952 58.6135 68.5619 60.3476 68.5619 62.1C68.5619 62.9032 68.3611 63.4691 67.9595 63.7976C67.5579 64.1262 67.1016 64.2905 66.5905 64.2905H52.1333C51.4762 64.2905 51.1659 64.3087 51.2024 64.3452C51.2389 64.3818 50.9651 64.2905 50.381 64.0714L41.181 60.8952L39.6476 64.7286L49.0667 68.0143C49.7968 68.3064 50.2714 68.4341 50.4905 68.3976C50.7095 68.3611 51.6587 68.3429 53.3381 68.3429H78.7476C82.2524 68.3429 85.1913 69.219 87.5643 70.9714C89.9373 72.7238 91.1238 74.8778 91.1238 77.4333V79.2952L57.6095 89.8095ZM0 86.3048V43.1524H16.8667V86.3048H0ZM66.4809 46.4381C57.0619 38.0413 50.4357 31.3421 46.6024 26.3405C42.769 21.3389 40.8524 16.8667 40.8524 12.9238C40.8524 9.27302 42.1119 6.20635 44.631 3.72381C47.15 1.24127 50.1984 0 53.7762 0C56.1127 0 58.3397 0.565873 60.4571 1.69762C62.5746 2.82937 64.5825 4.49048 66.4809 6.68095C68.3063 4.49048 70.2778 2.82937 72.3952 1.69762C74.5127 0.565873 76.7397 0 79.0762 0C82.654 0 85.7024 1.24127 88.2214 3.72381C90.7405 6.20635 92 9.27302 92 12.9238C92 16.8667 90.0833 21.3571 86.25 26.3952C82.4167 31.4333 75.827 38.1143 66.4809 46.4381Z" fill="#444444"/>
</svg>
