<svg width="18" height="18" viewBox="0 0 18 18" fill="none" xmlns="http://www.w3.org/2000/svg">
<path d="M9 18C7.725 18 6.54 17.7712 5.445 17.3137C4.35 16.8562 3.3975 16.2225 2.5875 15.4125C1.7775 14.6025 1.14375 13.65 0.68625 12.555C0.22875 11.46 0 10.275 0 9C0 7.74 0.22875 6.5625 0.68625 5.4675C1.14375 4.3725 1.7775 3.42 2.5875 2.61C3.3975 1.8 4.35 1.1625 5.445 0.6975C6.54 0.2325 7.725 0 9 0C10.26 0 11.4375 0.2325 12.5325 0.6975C13.6275 1.1625 14.58 1.8 15.39 2.61C16.2 3.42 16.8375 4.3725 17.3025 5.4675C17.7675 6.5625 18 7.74 18 9C18 10.275 17.7675 11.46 17.3025 12.555C16.8375 13.65 16.2 14.6025 15.39 15.4125C14.58 16.2225 13.6275 16.8562 12.5325 17.3137C11.4375 17.7712 10.26 18 9 18ZM7.6725 13.095L14.04 6.7275L13.005 5.715L7.6725 11.0475L4.9725 8.3475L3.96 9.36L7.6725 13.095Z" fill="#5B9A61"/>
</svg>
