<svg width="18" height="16" viewBox="0 0 18 16" fill="none" xmlns="http://www.w3.org/2000/svg">
<path d="M0 15.5455L9 0L18 15.5455H0ZM8.46818 10.8818H9.69545V6.3H8.46818V10.8818ZM9.08182 13.1523C9.25909 13.1523 9.40568 13.0943 9.52159 12.9784C9.6375 12.8625 9.69545 12.7159 9.69545 12.5386C9.69545 12.3614 9.6375 12.2148 9.52159 12.0989C9.40568 11.983 9.25909 11.925 9.08182 11.925C8.90455 11.925 8.75795 11.983 8.64205 12.0989C8.52614 12.2148 8.46818 12.3614 8.46818 12.5386C8.46818 12.7159 8.52614 12.8625 8.64205 12.9784C8.75795 13.0943 8.90455 13.1523 9.08182 13.1523Z" fill="#A71616"/>
</svg>
