<svg width="50" height="50" viewBox="0 0 50 50" fill="none" xmlns="http://www.w3.org/2000/svg">
<rect x="49" y="49" width="48" height="48" rx="24" transform="rotate(-180 49 49)" stroke="white" stroke-width="2"/>
<path d="M28.9998 32.9999L28.9883 33L20.9912 25.0028L20.9912 25.0028L20.9883 24.9999L20.9912 24.997L28.9912 16.997C28.992 16.9963 28.993 16.9958 28.9941 16.9958C28.9952 16.9958 28.9962 16.9963 28.997 16.997C28.9977 16.9978 28.9982 16.9989 28.9982 16.9999C28.9982 17.001 28.9978 17.002 28.997 17.0028C28.997 17.0028 28.997 17.0028 28.997 17.0028L21.6975 24.2923L20.9889 24.9999L21.6975 25.7075L28.9975 32.9975L28.9998 32.9999ZM28.9999 33V32.9999L28.9999 32.9999L28.9999 33Z" fill="white" stroke="white" stroke-width="2"/>
</svg>
