<svg width="92" height="91" viewBox="0 0 92 91" fill="none" xmlns="http://www.w3.org/2000/svg">
<path d="M46 44.075C39.675 44.075 34.5 42.0625 30.475 38.0375C26.45 34.0125 24.4375 28.8375 24.4375 22.5125C24.4375 16.1875 26.45 11.0125 30.475 6.98745C34.5 2.96245 39.675 0.949951 46 0.949951C52.325 0.949951 57.5 2.96245 61.525 6.98745C65.55 11.0125 67.5625 16.1875 67.5625 22.5125C67.5625 28.8375 65.55 34.0125 61.525 38.0375C57.5 42.0625 52.325 44.075 46 44.075ZM0 90.2187V76.7062C0 73.0645 0.910416 69.9499 2.73125 67.3624C4.55208 64.7749 6.9 62.8104 9.775 61.4687C16.1958 58.5937 22.3531 56.4374 28.2469 54.9999C34.1406 53.5624 40.0583 52.8437 46 52.8437C51.9417 52.8437 57.8354 53.5864 63.6812 55.0718C69.5271 56.5572 75.6604 58.6895 82.0812 61.4687C85.0521 62.8104 87.4479 64.7749 89.2687 67.3624C91.0896 69.9499 92 73.0645 92 76.7062V90.2187H0ZM8.625 81.5937H83.375V76.7062C83.375 75.1729 82.9198 73.7114 82.0094 72.3218C81.099 70.9322 79.9729 69.902 78.6312 69.2312C72.4979 66.2604 66.8917 64.2239 61.8125 63.1218C56.7333 62.0197 51.4625 61.4687 46 61.4687C40.5375 61.4687 35.2188 62.0197 30.0438 63.1218C24.8688 64.2239 19.2625 66.2604 13.225 69.2312C11.8833 69.902 10.7812 70.9322 9.91875 72.3218C9.05625 73.7114 8.625 75.1729 8.625 76.7062V81.5937ZM46 35.45C49.7375 35.45 52.8281 34.2281 55.2719 31.7843C57.7156 29.3406 58.9375 26.25 58.9375 22.5125C58.9375 18.775 57.7156 15.6843 55.2719 13.2406C52.8281 10.7968 49.7375 9.57495 46 9.57495C42.2625 9.57495 39.1719 10.7968 36.7281 13.2406C34.2844 15.6843 33.0625 18.775 33.0625 22.5125C33.0625 26.25 34.2844 29.3406 36.7281 31.7843C39.1719 34.2281 42.2625 35.45 46 35.45Z" fill="black"/>
</svg>
