<svg width="92" height="76" viewBox="0 0 92 76" fill="none" xmlns="http://www.w3.org/2000/svg">
<path d="M30.7846 75.4872C28.8974 75.4872 27.2462 74.7795 25.8308 73.3641C24.4154 71.9487 23.7077 70.2974 23.7077 68.4103V56.6154H38.3333V41.6359C35.3453 41.8718 32.3573 41.459 29.3692 40.3974C26.3812 39.3359 23.7077 37.665 21.3487 35.3846V28.5436H15.4513L0 13.0923C2.83077 10.4188 6.21197 8.23675 10.1436 6.54615C14.0752 4.85556 18.0855 4.01026 22.1744 4.01026C24.5333 4.01026 27.2265 4.38376 30.2538 5.13077C33.2812 5.87778 35.9744 7.07692 38.3333 8.7282V0H92V63.1026C92 66.5624 90.8009 69.4915 88.4026 71.8897C86.0043 74.288 83.0752 75.4872 79.6154 75.4872H30.7846ZM45.4103 56.6154H74.3077V63.1026C74.3077 64.6752 74.7991 65.953 75.7821 66.9359C76.765 67.9188 78.0427 68.4103 79.6154 68.4103C81.188 68.4103 82.4658 67.9188 83.4487 66.9359C84.4316 65.953 84.9231 64.6752 84.9231 63.1026V7.07692H45.4103V13.8L73.8359 42.2256V47.2974H68.7641L53.9026 32.4359L51.8974 34.7949C50.8752 35.9744 49.853 36.8786 48.8308 37.5077C47.8086 38.1368 46.6684 38.7265 45.4103 39.2769V56.6154ZM18.6359 21.4667H28.4256V31.9641C29.7624 32.8291 31.0795 33.4778 32.3769 33.9103C33.6744 34.3427 34.9915 34.559 36.3282 34.559C38.294 34.559 40.2991 34.0282 42.3436 32.9667C44.388 31.9051 45.8821 30.8239 46.8256 29.7231L48.8308 27.3641L40.6923 19.2256C38.1761 16.7094 35.3453 14.7239 32.2 13.2692C29.0547 11.8145 25.7128 11.0872 22.1744 11.0872C20.0513 11.0872 18.1248 11.3427 16.3949 11.8538C14.665 12.365 12.8957 13.053 11.0872 13.9179L18.6359 21.4667Z" fill="#4C4C4C"/>
</svg>
