<svg width="50" height="50" viewBox="0 0 50 50" fill="none" xmlns="http://www.w3.org/2000/svg">
<rect x="1" y="1" width="48" height="48" rx="24" stroke="white" stroke-width="2"/>
<path d="M21.0002 17.0001L21.0117 17L29.0088 24.9972L29.0088 24.9972L29.0117 25.0001L29.0088 25.003L21.0088 33.003C21.008 33.0037 21.007 33.0042 21.0059 33.0042C21.0048 33.0042 21.0038 33.0037 21.003 33.003C21.0023 33.0022 21.0018 33.0011 21.0018 33.0001C21.0018 32.999 21.0022 32.998 21.003 32.9972C21.003 32.9972 21.003 32.9972 21.003 32.9972L28.3025 25.7077L29.0111 25.0001L28.3025 24.2925L21.0025 17.0025L21.0002 17.0001ZM21.0001 17L21.0001 17.0001L21.0001 17.0001L21.0001 17Z" stroke="white" stroke-width="2"/>
</svg>
