<svg width="92" height="90" viewBox="0 0 92 90" fill="none" xmlns="http://www.w3.org/2000/svg">
<path d="M66.2943 46C79.5531 33.9859 92.0001 23.8659 92.0001 14.1247C92.0001 6.22353 85.7766 0 77.8754 0C73.4378 0 69.1084 2.11059 66.2943 5.35765C63.5343 2.11059 59.2048 0 54.7131 0C46.8119 0 40.5884 6.22353 40.5884 14.1247C40.5884 23.8118 53.0354 33.9859 66.2943 46ZM54.7131 8.11765C56.6613 8.11765 58.826 9.09176 60.1248 10.6071L66.2943 17.8047L72.4637 10.6071C73.7625 9.09176 75.8731 8.11765 77.8754 8.11765C81.2849 8.11765 83.8825 10.7153 83.8825 14.1247C83.8825 18.9953 74.8448 27.3835 66.2943 35.0682C57.7437 27.3835 48.706 18.9412 48.706 14.1247C48.706 10.7153 51.3037 8.11765 54.7131 8.11765Z" fill="#4c4c4c"/>
<path d="M75.7647 59.5296H70.3529C70.3529 54.659 67.2682 50.3296 62.7223 48.7061L32.4706 37.8826H0V86.5885H27.0588V80.2026L56.8235 89.2943L92 78.4708V75.7649C92 66.7814 84.7482 59.5296 75.7647 59.5296ZM18.9412 77.7132V78.4708H8.11765V46.0002H18.9412V77.7132ZM56.8235 80.7979L27.0588 71.7061V46.0002H31.0635L59.9623 56.3367C61.3153 56.8237 62.2353 58.1226 62.2353 59.5296H49.4635L39.3435 55.7414L36.4753 63.3179L47.2988 67.6473H75.7647C79.12 67.6473 82.0423 69.7037 83.287 72.6802L56.8235 80.7979Z" fill="#4c4c4c"/>
</svg>
