<svg width="92" height="92" viewBox="0 0 92 92" fill="none" xmlns="http://www.w3.org/2000/svg">
<path d="M7.66667 79.6056C12.7778 74.8352 18.5704 70.9806 25.0444 68.0417C31.5185 65.1028 38.5037 63.6333 46 63.6333C53.4963 63.6333 60.4815 65.1028 66.9556 68.0417C73.4296 70.9806 79.2222 74.8352 84.3333 79.6056V7.66667H7.66667V79.6056ZM46.2556 53.5389C51.1963 53.5389 55.3704 51.8352 58.7778 48.4278C62.1852 45.0204 63.8889 40.8463 63.8889 35.9056C63.8889 30.9648 62.1852 26.7907 58.7778 23.3833C55.3704 19.9759 51.1963 18.2722 46.2556 18.2722C41.3148 18.2722 37.1407 19.9759 33.7333 23.3833C30.3259 26.7907 28.6222 30.9648 28.6222 35.9056C28.6222 40.8463 30.3259 45.0204 33.7333 48.4278C37.1407 51.8352 41.3148 53.5389 46.2556 53.5389ZM7.66667 92C5.62222 92 3.83333 91.2333 2.3 89.7C0.766667 88.1667 0 86.3778 0 84.3333V7.66667C0 5.62222 0.766667 3.83333 2.3 2.3C3.83333 0.766667 5.62222 0 7.66667 0H84.3333C86.3778 0 88.1667 0.766667 89.7 2.3C91.2333 3.83333 92 5.62222 92 7.66667V84.3333C92 86.3778 91.2333 88.1667 89.7 89.7C88.1667 91.2333 86.3778 92 84.3333 92H7.66667ZM14.6944 84.3333H77.3056C77.3056 84.0778 77.3056 83.8861 77.3056 83.7583C77.3056 83.6306 77.3056 83.4389 77.3056 83.1833C72.7056 79.2648 67.7648 76.3046 62.4833 74.3028C57.2019 72.3009 51.7074 71.3 46 71.3C40.2926 71.3 34.7981 72.3009 29.5167 74.3028C24.2352 76.3046 19.2944 79.2648 14.6944 83.1833C14.6944 83.4389 14.6944 83.6306 14.6944 83.7583C14.6944 83.8861 14.6944 84.0778 14.6944 84.3333ZM46.2556 45.8722C43.5296 45.8722 41.187 44.8926 39.2278 42.9333C37.2685 40.9741 36.2889 38.6315 36.2889 35.9056C36.2889 33.0944 37.2685 30.7306 39.2278 28.8139C41.187 26.8972 43.5296 25.9389 46.2556 25.9389C49.0667 25.9389 51.4306 26.8972 53.3472 28.8139C55.2639 30.7306 56.2222 33.0944 56.2222 35.9056C56.2222 38.6315 55.2639 40.9741 53.3472 42.9333C51.4306 44.8926 49.0667 45.8722 46.2556 45.8722Z" fill="black"/>
</svg>
