<svg width="92" height="98" viewBox="0 0 92 98" fill="none" xmlns="http://www.w3.org/2000/svg">
<path d="M59.6171 97.5552C58.5331 97.5552 57.5847 97.1488 56.7717 96.3358C55.9588 95.5228 55.5523 94.5744 55.5523 93.4904C55.5523 92.3162 55.9588 91.3451 56.7717 90.5773C57.5847 89.8095 58.5331 89.4256 59.6171 89.4256C64.9465 89.4256 69.4404 88.3417 73.0987 86.1738C76.757 84.0059 78.5862 81.4767 78.5862 78.5862C78.5862 76.5086 77.2538 74.4762 74.5891 72.489C71.9244 70.5017 68.3338 68.9661 63.8174 67.8822L70.1856 61.514C75.8763 63.2302 80.054 65.6014 82.7187 68.6274C85.3834 71.6534 86.7158 74.973 86.7158 78.5862C86.7158 84.6382 83.9607 89.3127 78.4507 92.6097C72.9406 95.9067 66.6627 97.5552 59.6171 97.5552ZM16.2592 57.7202C10.4782 56.4556 6.32302 54.4683 3.79381 51.7585C1.26461 49.0486 0 46.2484 0 43.3579C0 40.1964 1.17428 37.351 3.52283 34.8218C5.87138 32.2926 11.2911 29.4924 19.782 26.4212C25.7437 24.2533 29.5827 22.4919 31.299 21.137C33.0152 19.782 33.8733 18.2013 33.8733 16.3947C33.8733 14.1365 32.8797 12.1944 30.8925 10.5685C28.9053 8.94256 25.8341 8.1296 21.6789 8.1296C19.2401 8.1296 17.1625 8.44576 15.4462 9.07806C13.73 9.71036 12.1944 10.704 10.8395 12.0589C10.1168 12.7815 9.19097 13.2106 8.06186 13.3461C6.93275 13.4816 5.91654 13.188 5.01325 12.4654C4.01964 11.7428 3.50025 10.8395 3.45508 9.75552C3.40992 8.67158 3.74865 7.72312 4.47128 6.91016C6.00687 4.92293 8.31026 3.27442 11.3814 1.96465C14.4526 0.654884 17.8851 0 21.6789 0C27.8213 0 32.7442 1.46784 36.4477 4.40353C40.1512 7.33922 42.0029 11.3363 42.0029 16.3947C42.0029 20.0982 40.7158 23.2371 38.1414 25.8115C35.567 28.3859 30.5312 31.0731 23.0339 33.8733C16.9818 36.1316 12.9848 37.9156 11.0427 39.2253C9.10064 40.5351 8.1296 41.9126 8.1296 43.3579C8.1296 44.8031 9.34904 46.1807 11.7879 47.4904C14.2268 48.8002 17.8851 50.0422 22.7629 51.2165L16.2592 57.7202ZM83.4639 36.8542L66.1208 19.511L72.218 13.4138C73.8439 11.7879 75.6505 10.975 77.6377 10.975C79.6249 10.975 81.4315 11.7879 83.0574 13.4138L89.5611 19.9175C91.187 21.5434 92 23.35 92 25.3373C92 27.3245 91.187 29.1311 89.5611 30.757L83.4639 36.8542ZM5.41973 97.5552V80.2121L60.2946 25.3373L77.6377 42.6804L22.7629 97.5552H5.41973Z" fill="#4C4C4C"/>
</svg>
